<svg xmlns="http://www.w3.org/2000/svg" xmlns:xlink="http://www.w3.org/1999/xlink">
  <symbol id="fb" viewBox="0 0 36.7 36.7">
  <path d="M36.7,34.7c0,1.1-0.9,2-2,2h-9.4V22.5h4.8l0.7-5.5h-5.5v-3.5c0-1.6,0.4-2.7,2.7-2.7l2.9,0v-5
	c-0.5-0.1-2.2-0.2-4.3-0.2c-4.2,0-7.1,2.6-7.1,7.3V17h-4.8v5.5h4.8v14.2H2c-1.1,0-2-0.9-2-2V2c0-1.1,0.9-2,2-2h32.7c1.1,0,2,0.9,2,2
	V34.7z"/>
  </symbol>
  <symbol id="inst" viewBox="0 0 36.7 36.7">
  <path d="M32.3,0H4.4C2,0,0,1.9,0,4.3v28.1c0,2.4,2,4.3,4.4,4.3h27.9c2.4,0,4.4-1.9,4.4-4.3V4.3C36.7,1.9,34.7,0,32.3,0
	 M26.4,5.7c0-0.6,0.5-1.1,1.1-1.1H31c0.6,0,1.1,0.5,1.1,1.1v3.4c0,0.6-0.5,1.1-1.1,1.1h-3.4c-0.6,0-1.1-0.5-1.1-1.1L26.4,5.7
	L26.4,5.7z M18.4,11.3c3.9,0,7.1,3.1,7.1,7s-3.2,7-7.1,7s-7.1-3.1-7.1-7C11.3,14.5,14.5,11.3,18.4,11.3 M33.2,32.1
	c0,0.6-0.5,1.1-1.1,1.1H4.6c-0.6,0-1.1-0.5-1.1-1.1V14.9H8c-0.6,0.9-0.8,2.5-0.8,3.5c0,6.1,5,11.1,11.2,11.1s11.2-5,11.2-11.1
	c0-1-0.1-2.6-0.9-3.5h4.6L33.2,32.1L33.2,32.1z"/>
  </symbol>
  <symbol id="tw" viewBox="0 0 36.7 36.7">
  <path d="M35.7,3.7c-1.5,0.9-3.1,1.5-4.8,1.9c-1.4-1.5-3.3-2.4-5.5-2.4c-4.2,0-7.5,3.5-7.5,7.7c0,0.6,0.1,1.2,0.2,1.8
	C11.8,12.3,6.3,9.2,2.6,4.5c-0.6,1.1-1,2.5-1,3.9c0,2.7,1.3,5,3.4,6.4c-1.2,0-2.4-0.4-3.4-1V14c0,3.7,2.6,6.9,6,7.6
	c-0.6,0.2-1.3,0.3-2,0.3c-0.5,0-1,0-1.4-0.1c1,3.1,3.7,5.3,7,5.4c-2.6,2.1-5.8,3.3-9.4,3.3c-0.6,0-1.2,0-1.8-0.1
	c3.3,2.2,7.3,3.5,11.5,3.5c13.9,0,21.4-11.8,21.4-22c0-0.3,0-0.7,0-1c1.5-1.1,2.8-2.4,3.8-4c-1.3,0.6-2.8,1-4.3,1.2
	C33.9,7,35.1,5.5,35.7,3.7"/>
  </symbol>
  <symbol id="vk" viewBox="0 0 36.7 36.7">
  <path d="M36.5,26.8c0-0.1-0.1-0.2-0.1-0.2c-0.6-1.1-1.9-2.6-3.7-4.2l0,0l0,0l0,0h0c-0.8-0.8-1.3-1.3-1.5-1.6
	c-0.4-0.5-0.5-1-0.3-1.5c0.2-0.4,0.7-1.2,1.7-2.5c0.5-0.7,0.9-1.2,1.2-1.6c2.2-2.9,3.2-4.8,2.9-5.6l-0.1-0.2C36.5,9.1,36.3,9,36,8.9
	c-0.3-0.1-0.7-0.1-1.2,0l-5.5,0c-0.1,0-0.2,0-0.4,0c-0.2,0-0.2,0.1-0.2,0.1l-0.1,0l-0.1,0.1c-0.1,0-0.1,0.1-0.2,0.2
	c-0.1,0.1-0.1,0.2-0.2,0.3c-0.6,1.5-1.3,3-2,4.3c-0.5,0.8-0.9,1.5-1.3,2.1c-0.4,0.6-0.7,1-1,1.3c-0.3,0.3-0.5,0.5-0.7,0.7
	c-0.2,0.2-0.4,0.2-0.5,0.2c-0.1,0-0.2-0.1-0.3-0.1c-0.2-0.1-0.3-0.3-0.4-0.5c-0.1-0.2-0.2-0.4-0.2-0.7c0-0.3-0.1-0.6-0.1-0.8
	c0-0.2,0-0.5,0-0.9c0-0.4,0-0.7,0-0.8c0-0.5,0-1,0-1.6c0-0.6,0-1,0-1.3c0-0.3,0-0.7,0-1.1c0-0.4,0-0.7-0.1-0.9
	c0-0.2-0.1-0.4-0.2-0.6c-0.1-0.2-0.2-0.4-0.4-0.5c-0.2-0.1-0.4-0.2-0.6-0.3c-0.7-0.2-1.5-0.2-2.6-0.2c-2.4,0-3.9,0.1-4.6,0.5
	c-0.3,0.1-0.5,0.3-0.7,0.6c-0.2,0.3-0.3,0.4-0.1,0.5c0.8,0.1,1.3,0.4,1.6,0.8l0.1,0.2c0.1,0.2,0.2,0.5,0.3,0.9
	c0.1,0.4,0.1,0.9,0.2,1.4c0.1,0.9,0.1,1.7,0,2.4c-0.1,0.7-0.1,1.2-0.2,1.5c-0.1,0.4-0.1,0.7-0.3,0.9c-0.1,0.2-0.2,0.4-0.2,0.4
	c0,0.1-0.1,0.1-0.1,0.1c-0.2,0.1-0.3,0.1-0.5,0.1c-0.2,0-0.4-0.1-0.6-0.3c-0.3-0.2-0.5-0.4-0.8-0.7c-0.3-0.3-0.6-0.7-0.9-1.3
	c-0.3-0.6-0.7-1.2-1.1-2l-0.3-0.6c-0.2-0.4-0.5-0.9-0.8-1.6c-0.3-0.7-0.6-1.3-0.9-2C7.7,9.5,7.5,9.3,7.3,9.1L7.2,9.1
	C7.1,9,7,9,6.9,8.9C6.8,8.9,6.6,8.8,6.5,8.8l-5.2,0C0.7,8.8,0.3,9,0.1,9.2L0.1,9.3C0,9.4,0,9.5,0,9.6c0,0.1,0,0.3,0.1,0.5
	c0.8,1.8,1.6,3.5,2.5,5.2c0.9,1.7,1.7,3,2.3,4c0.7,1,1.3,2,2,2.9c0.7,0.9,1.1,1.5,1.4,1.7c0.2,0.3,0.4,0.4,0.5,0.6L9.3,25
	c0.3,0.3,0.8,0.7,1.3,1.1c0.6,0.4,1.2,0.8,2,1.3c0.7,0.4,1.6,0.8,2.5,1c1,0.3,1.9,0.4,2.8,0.3h2.2c0.4,0,0.8-0.2,1-0.4l0.1-0.1
	c0.1-0.1,0.1-0.2,0.1-0.4c0-0.2,0.1-0.3,0.1-0.5c0-0.5,0-1,0.1-1.5c0.1-0.4,0.2-0.8,0.3-1c0.1-0.2,0.3-0.4,0.4-0.6
	c0.2-0.2,0.3-0.2,0.3-0.3c0.1,0,0.1-0.1,0.2-0.1c0.3-0.1,0.7,0,1.1,0.3c0.4,0.3,0.8,0.7,1.2,1.1c0.4,0.4,0.8,0.9,1.3,1.5
	c0.5,0.5,1,1,1.3,1.2l0.4,0.2c0.3,0.2,0.6,0.3,1,0.4c0.4,0.1,0.8,0.2,1.1,0.1l4.9-0.1c0.5,0,0.9-0.1,1.1-0.2
	c0.3-0.2,0.4-0.3,0.5-0.5c0.1-0.2,0.1-0.4,0-0.7C36.6,27.1,36.6,26.9,36.5,26.8L36.5,26.8z M36.5,26.8"/>
  </symbol>
 
 <symbol viewBox="0 0 401.998 401.998" id="phone1">
  <path d="M401.129 311.475c-1.137-3.426-8.371-8.473-21.697-15.129-3.61-2.098-8.754-4.949-15.41-8.566a1437.412 1437.412 0 0 1-18.13-9.996 605.612 605.612 0 0 1-15.276-8.846c-.76-.571-3.139-2.234-7.136-5-4.001-2.758-7.375-4.805-10.14-6.14-2.759-1.327-5.473-1.995-8.138-1.995-3.806 0-8.56 2.714-14.268 8.135a139.01 139.01 0 0 0-15.7 17.706c-4.757 6.379-9.802 12.275-15.126 17.7-5.332 5.427-9.713 8.138-13.135 8.138-1.718 0-3.86-.479-6.427-1.424-2.566-.951-4.518-1.766-5.858-2.423-1.328-.671-3.607-1.999-6.845-4.004-3.244-1.999-5.048-3.094-5.428-3.285-26.075-14.469-48.438-31.029-67.093-49.676-18.649-18.658-35.211-41.019-49.676-67.097-.19-.381-1.287-2.19-3.284-5.424-2-3.237-3.333-5.518-3.999-6.854-.666-1.331-1.475-3.283-2.425-5.852s-1.427-4.709-1.427-6.424c0-3.424 2.713-7.804 8.138-13.134 5.424-5.327 11.326-10.373 17.7-15.128a138.95 138.95 0 0 0 17.701-15.699c5.424-5.711 8.136-10.467 8.136-14.273 0-2.663-.666-5.378-1.997-8.137-1.332-2.765-3.378-6.139-6.139-10.138-2.762-3.997-4.427-6.374-4.999-7.139a627.13 627.13 0 0 1-8.848-15.271 1441.4 1441.4 0 0 1-9.995-18.131c-3.615-6.658-6.468-11.799-8.564-15.415C98.986 9.233 93.943 1.997 90.516.859 89.183.288 87.183 0 84.521 0c-5.142 0-11.85.95-20.129 2.856-8.282 1.903-14.799 3.899-19.558 5.996-9.517 3.995-19.604 15.605-30.264 34.826C4.863 61.566.01 79.271.01 96.78c0 5.135.333 10.131.999 14.989.666 4.853 1.856 10.326 3.571 16.418 1.712 6.09 3.093 10.614 4.137 13.56 1.045 2.948 2.996 8.229 5.852 15.845 2.852 7.614 4.567 12.275 5.138 13.988 6.661 18.654 14.56 35.307 23.695 49.964 15.03 24.362 35.541 49.539 61.521 75.521 25.981 25.98 51.153 46.49 75.517 61.526 14.655 9.134 31.314 17.032 49.965 23.698 1.714.568 6.375 2.279 13.986 5.141 7.614 2.854 12.897 4.805 15.845 5.852 2.949 1.048 7.474 2.43 13.559 4.145 6.098 1.715 11.566 2.905 16.419 3.576 4.856.657 9.853.996 14.989.996 17.508 0 35.214-4.856 53.105-14.562 19.219-10.656 30.826-20.745 34.823-30.269 2.102-4.754 4.093-11.273 5.996-19.555 1.909-8.278 2.857-14.985 2.857-20.126.006-2.673-.281-4.668-.855-6.012z"></path>
</symbol>
<symbol id="choccobar" viewBox="0 0 442.326 442.326">
<path d="M430.024,68.87l-56.568-56.568C365.523,4.369,354.976,0,343.757,0c-11.218,0-21.766,4.369-29.699,12.302
	c-8.292,8.293-12.54,19.4-12.3,30.598c-11.214-0.246-22.305,4.009-30.597,12.301c-8.293,8.293-12.542,19.399-12.3,30.598
	c-11.206-0.274-22.305,4.008-30.598,12.3c-8.292,8.293-12.54,19.4-12.3,30.597c-11.214-0.228-22.305,4.008-30.597,12.301h-0.001
	L45.358,281.003c-0.008,0.008-0.015,0.016-0.023,0.023L3.056,323.304c-1.168,1.126-2.077,2.551-2.594,4.2
	c-0.049,0.156-0.094,0.313-0.135,0.471c-0.599,2.289-0.352,4.608,0.553,6.621c0.001,0.002,0.002,0.005,0.003,0.008l0.002,0.003
	c0.214,0.475,0.463,0.93,0.746,1.362c1.262,1.933,3.195,3.441,5.583,4.135c0.003,0,0.012,0.004,0.019,0.005
	c0.01,0.005,0.016,0.006,0.023,0.007l34.258,9.789l9.789,34.258c0.949,3.322,3.546,5.919,6.868,6.868l34.254,9.785l9.787,34.255
	c0.002,0.008,0.004,0.016,0.006,0.022c0.001,0.003,0.002,0.007,0.003,0.01c0.001,0.004,0.002,0.009,0.003,0.013
	c0.001,0.004,0.002,0.009,0.004,0.013l0.001,0.005c0.703,2.402,2.229,4.341,4.182,5.598c0.399,0.257,0.818,0.486,1.254,0.686
	c0.004,0.001,0.008,0.003,0.012,0.005c1.284,0.586,2.694,0.904,4.144,0.904c0.909,0,1.834-0.125,2.752-0.388
	c1.757-0.502,3.269-1.443,4.451-2.671l42.276-42.276c0.008-0.007,0.016-0.015,0.023-0.023l60.658-60.658
	c1.163,1.162,2.613,2.041,4.247,2.522c3.51,1.034,7.307,0.066,9.895-2.522l72.278-72.278c3.905-3.905,3.905-10.237,0-14.143
	l-0.85-0.85c4.17-6.869,6.249-14.751,6.08-22.677c11.19,0.233,22.304-4.008,30.597-12.3c8.293-8.293,12.542-19.399,12.3-30.598
	c11.2,0.261,22.305-4.008,30.598-12.3c8.293-8.293,12.542-19.4,12.3-30.598c11.205,0.209,22.305-4.009,30.597-12.301
	c7.933-7.933,12.302-18.479,12.302-29.698C442.326,87.351,437.957,76.804,430.024,68.87z M116.773,413.234l-6.644-23.255
	c-0.949-3.322-3.546-5.919-6.868-6.868l-34.254-9.785l-9.789-34.258c-0.949-3.322-3.546-5.919-6.868-6.868l-23.259-6.646
	l23.338-23.338l87.681,87.682L116.773,413.234z M234.953,309.196L211.46,200.459c-1.167-5.398-6.488-8.825-11.886-7.662
	c-5.398,1.166-8.829,6.488-7.663,11.886l23.703,109.71l-61.362,61.362l-87.681-87.681l125.865-125.865l94.752,94.752h0
	L234.953,309.196z M415.883,114.125c-6.691,6.689-16.878,8.355-25.349,4.145c-3.847-1.914-8.485-1.155-11.523,1.883
	s-3.795,7.677-1.883,11.523c4.211,8.471,2.546,18.657-4.144,25.348c-6.69,6.691-16.876,8.355-25.348,4.144
	c-3.847-1.913-8.486-1.155-11.523,1.883c-3.038,3.038-3.796,7.677-1.883,11.523c4.211,8.471,2.546,18.657-4.144,25.348
	c-6.69,6.69-16.878,8.355-25.348,4.144c-3.846-1.913-8.485-1.155-11.523,1.883c-3.038,3.038-3.795,7.677-1.883,11.523
	c2.626,5.281,2.967,11.229,1.231,16.581l-84.289-84.289c5.351-1.736,11.3-1.395,16.58,1.231c3.848,1.913,8.485,1.155,11.523-1.883
	s3.796-7.677,1.883-11.523c-4.212-8.471-2.546-18.657,4.144-25.348c6.69-6.691,16.876-8.356,25.348-4.143
	c3.847,1.914,8.486,1.154,11.523-1.883c3.038-3.038,3.796-7.677,1.883-11.523c-4.211-8.471-2.546-18.657,4.144-25.349
	c6.691-6.689,16.878-8.355,25.348-4.144c3.846,1.912,8.485,1.155,11.523-1.883c3.038-3.038,3.795-7.677,1.883-11.523
	c-4.212-8.471-2.547-18.657,4.144-25.348c4.155-4.155,9.68-6.444,15.556-6.444c5.876,0,11.401,2.289,15.556,6.444l56.569,56.568
	c4.155,4.155,6.444,9.68,6.444,15.557C422.326,104.445,420.037,109.97,415.883,114.125z"/>
</symbol>
<symbol id="arrow" viewBox="0 0 14.2 25.5">
<polygon points="14.2,12.7 1.5,0 0,1.5 11.3,12.7 0,24 1.5,25.5 14.2,12.7 14.2,12.7 "/>
</symbol>
  
  
</svg>